<svg width="44" height="44" viewBox="0 0 44 44" fill="none" xmlns="http://www.w3.org/2000/svg">
<circle cx="22" cy="22" r="21.5" stroke="#4C858B"/>
<g clip-path="url(#clip0_1670_256)">
<path d="M29.6074 14.1074H13.1074C12.6932 14.1074 12.3574 14.4432 12.3574 14.8574C12.3574 15.2716 12.6932 15.6074 13.1074 15.6074H29.6074C30.0217 15.6074 30.3574 15.2716 30.3574 14.8574C30.3574 14.4432 30.0216 14.1074 29.6074 14.1074Z" fill="#4C858B"/>
<path d="M29.6074 21.6074H13.1074C12.6932 21.6074 12.3574 21.9432 12.3574 22.3574C12.3574 22.7717 12.6932 23.1074 13.1074 23.1074H29.6074C30.0217 23.1074 30.3574 22.7717 30.3574 22.3574C30.3574 21.9432 30.0216 21.6074 29.6074 21.6074Z" fill="#4C858B"/>
<path d="M29.6074 29.1074H13.1074C12.6932 29.1074 12.3574 29.4432 12.3574 29.8574C12.3574 30.2717 12.6932 30.6074 13.1074 30.6074H29.6074C30.0217 30.6074 30.3574 30.2717 30.3574 29.8574C30.3574 29.4432 30.0216 29.1074 29.6074 29.1074Z" fill="#4C858B"/>
</g>
<defs>
<clipPath id="clip0_1670_256">
<rect width="18" height="18" fill="white" transform="translate(12.3574 13.3574)"/>
</clipPath>
</defs>
</svg>
