<svg width="58" height="56" fill="none" xmlns="http://www.w3.org/2000/svg"><circle cx="28" cy="28" r="27.5" stroke="#E5E5E5"/><circle cx="47.5" cy="12.5" r="10.5" fill="#E33E54"/><path d="M46.731 14.883V16h-4.477v-1.117h1.584v-4.366a7.806 7.806 0 01.022-.595l-1.045.87a.517.517 0 01-.412.11.558.558 0 01-.166-.067.495.495 0 01-.11-.099l-.478-.643 2.453-2.079h1.248v6.87h1.381zm6.782-2.876c0 .697-.075 1.302-.225 1.815-.15.513-.358.939-.622 1.276a2.521 2.521 0 01-.94.748c-.36.161-.748.242-1.166.242-.418 0-.807-.08-1.166-.242a2.487 2.487 0 01-.93-.748c-.26-.337-.465-.763-.616-1.276-.146-.513-.22-1.118-.22-1.815 0-.697.074-1.3.22-1.81.15-.513.356-.936.616-1.27.26-.337.57-.587.93-.748a2.76 2.76 0 011.166-.248c.418 0 .806.083 1.166.248.363.161.676.41.94.748.264.334.472.757.622 1.27.15.51.225 1.113.225 1.81zm-1.567 0c0-.565-.04-1.03-.121-1.397-.077-.367-.18-.656-.308-.869-.129-.213-.277-.361-.446-.445a1.11 1.11 0 00-.511-.127 1.11 1.11 0 00-.512.127c-.161.084-.306.232-.434.445-.125.213-.226.502-.303.869-.077.367-.115.832-.115 1.397 0 .568.038 1.036.115 1.402.077.367.178.657.303.87.128.212.273.36.434.445.165.084.336.127.512.127s.346-.043.511-.127c.169-.084.318-.233.446-.446.128-.212.23-.502.308-.869.08-.366.12-.834.12-1.402z" fill="#fff"/><g clip-path="url(#clip0_34_8)" fill="#000"><path d="M39.644 24.675a1.658 1.658 0 00-1.305-.626h-4.622l-2.506-5.739a.703.703 0 00-1.289.563l2.26 5.176h-8.365l2.26-5.176a.703.703 0 10-1.288-.563l-2.506 5.74H17.66c-.512 0-.988.227-1.305.625a1.62 1.62 0 00-.315 1.377l2.469 10.781a1.647 1.647 0 001.62 1.279h15.74c.782 0 1.448-.526 1.62-1.279l2.469-10.781a1.62 1.62 0 00-.315-1.377zm-3.773 12.03H20.129a.251.251 0 01-.248-.186l-2.469-10.78a.215.215 0 01.044-.188.255.255 0 01.205-.095h4.008l-.184.421a.703.703 0 001.288.563l.43-.984h9.594l.43.984a.703.703 0 101.289-.563l-.185-.421h4.008c.112 0 .177.06.205.095a.22.22 0 01.044.187L36.12 36.519a.252.252 0 01-.25.186z"/><path d="M23.781 28.502a.703.703 0 00-.703.704v5.156a.703.703 0 001.406 0v-5.156a.703.703 0 00-.703-.704zm4.219 0a.703.703 0 00-.703.704v5.156a.703.703 0 001.406 0v-5.156a.703.703 0 00-.703-.704zm4.219 0a.703.703 0 00-.703.704v5.156a.703.703 0 001.406 0v-5.156a.703.703 0 00-.703-.704z"/></g><defs><clipPath id="clip0_34_8"><path fill="#fff" transform="translate(16 16)" d="M0 0h24v24H0z"/></clipPath></defs></svg>