<svg width="56" height="56" fill="none" xmlns="http://www.w3.org/2000/svg"><circle cx="28" cy="28" r="27.5" stroke="#E5E5E5"/><path d="M27.5 37.72c-.328 0-.643-.118-.89-.334-.928-.812-1.824-1.576-2.614-2.25l-.005-.003c-2.317-1.974-4.318-3.68-5.71-5.36C16.725 27.897 16 26.116 16 24.17c0-1.89.648-3.633 1.825-4.91a6.185 6.185 0 014.6-2.002c1.328 0 2.544.42 3.614 1.247.54.418 1.03.93 1.461 1.526a7.393 7.393 0 011.461-1.526c1.07-.827 2.286-1.247 3.614-1.247 1.776 0 3.41.711 4.6 2.002C38.352 20.537 39 22.28 39 24.17c0 1.945-.725 3.726-2.281 5.603-1.392 1.68-3.393 3.386-5.71 5.36-.792.675-1.689 1.44-2.62 2.254a1.35 1.35 0 01-.889.333zm-5.075-19.115a4.852 4.852 0 00-3.61 1.569c-.947 1.026-1.468 2.445-1.468 3.996 0 1.636.608 3.1 1.971 4.744 1.318 1.59 3.278 3.26 5.547 5.194l.004.004c.794.676 1.693 1.442 2.629 2.26a316.8 316.8 0 012.637-2.264c2.27-1.934 4.23-3.604 5.547-5.194 1.363-1.645 1.97-3.108 1.97-4.744 0-1.55-.52-2.97-1.467-3.997a4.852 4.852 0 00-3.61-1.568 4.47 4.47 0 00-2.79.966c-.738.571-1.253 1.293-1.555 1.799a.844.844 0 01-.73.415.844.844 0 01-.73-.415c-.302-.506-.817-1.228-1.555-1.8a4.469 4.469 0 00-2.79-.965z" fill="#E33E54"/></svg>