<svg width="56" height="56" fill="none" xmlns="http://www.w3.org/2000/svg"><circle cx="28" cy="28" r="27.5" stroke="#E5E5E5"/><g clip-path="url(#clip0_34_21)"><path d="M38.731 37.435l-6.256-6.256a8.666 8.666 0 001.941-5.47c0-4.802-3.906-8.709-8.708-8.709C20.907 17 17 20.907 17 25.708c0 4.802 3.907 8.709 8.708 8.709 2.072 0 3.974-.73 5.47-1.942l6.257 6.256a.914.914 0 001.296 0 .916.916 0 000-1.296zm-13.023-4.852a6.882 6.882 0 01-6.875-6.875 6.882 6.882 0 016.875-6.875 6.882 6.882 0 016.875 6.875 6.882 6.882 0 01-6.875 6.875z" fill="#4C858B"/></g><defs><clipPath id="clip0_34_21"><path fill="#fff" transform="translate(17 17)" d="M0 0h22v22H0z"/></clipPath></defs></svg>